<?xml version="1.0" encoding="UTF-8"?><svg id="Layer_2" xmlns="http://www.w3.org/2000/svg" viewBox="0 0 398.27 116.71"><g id="Label"><g><path d="M300.24,116.71c-2.17-2.49-4.33-4.98-6.5-7.46-4.67-5.34-9.34-10.69-14.04-16.01-.69-.78-.96-1.59-.96-2.62,.02-21.78,.02-43.56,.02-65.34,0-1.92,0-1.97-1.95-1.99-2.43-.03-4.85,.05-7.28,.03-.94,0-1.27,.39-1.21,1.28,.03,.44,0,.88,0,1.32,0,21.25,0,42.5,0,63.76,0,.48,0,.97-.01,1.45,0,.69-.3,1.04-1.05,1.03-6.48-.01-12.97-.03-19.45,.02-1.45,.01-1.35-.85-1.35-1.81,0-21.56,0-43.12,0-64.68,0-2.48,.35-2.35-2.33-2.36-2.03,0-4.06-.03-6.09-.06-1.95-.03-2.03,.03-2.03,1.95,0,12.57,0,25.13,0,37.7,0,9.08,0,18.17,0,27.25,0,2.01,0,2.01-1.95,2.02-6.09,0-12.17-.03-18.26,.02-1.24,.01-1.68-.32-1.68-1.63,.03-29.72,.03-59.44,0-89.15,0-1.16,.42-1.48,1.46-1.4,4.09,.3,8.19,.09,12.28,.07,5.46-.02,10.93,.02,16.39-.02,4.13-.03,8.28,.05,12.41,.03,5.2-.03,10.4-.05,15.59-.01,4.49,.03,8.99-.02,13.48,0,4.35,.01,8.72,.2,13.08-.04,1.84-.1,1.86,0,1.86,1.81,0,36.29,0,72.58,0,108.86,0,1.97,0,3.93,0,5.9l-.43,.1Z"/><path d="M115.8,0c7.18,7.66,14.11,15.05,21.06,22.47,.44-.48,.27-.94,.27-1.35,.03-6.31,.04-12.61,.06-18.92q0-1.98,1.94-1.98c11.16,0,22.33,0,33.49,0,9.4,0,18.79-.03,28.19-.04q2.15,0,2.15,2.07c0,37.08,0,74.17,0,111.25,0,.55,.28,1.36-.24,1.6-.67,.31-1-.54-1.4-.95-6.62-6.91-13.21-13.85-19.85-20.74-.87-.9-1.21-1.8-1.2-3.04,.04-9.61,.02-19.23,.02-28.84,0-1.71,0-1.68-1.67-1.68-12.4,0-24.79,.02-37.19,0-3.89,0-3.89-.05-3.89,3.77,0,8.91,0,17.81,0,26.72,0,1.82-.01,1.83-1.86,1.83-6.09,0-12.18-.02-18.26,.03-1.27,.01-1.77-.27-1.76-1.67,.05-29.68,.05-59.35,.07-89.03,0-.38,.05-.76,.09-1.49Zm43.14,33.78v.05c6.7,0,13.4-.02,20.1,.02,1.02,0,1.28-.4,1.26-1.33-.05-2.03-.01-4.05-.01-6.08q0-3.09-3.02-3.07c-2.12,0-4.23,0-6.35,0-10.62,0-21.24,.01-31.86-.02-1.13,0-1.57,.3-1.54,1.49,.07,2.46,.08,4.94,0,7.4-.04,1.23,.4,1.58,1.6,1.57,6.61-.05,13.22-.02,19.83-.02Z"/><path d="M332.89,22.5c.31-.63,.2-1.12,.2-1.6,.03-6.35,.07-12.7,.04-19.05,0-1.26,.38-1.66,1.66-1.66,20.52,.03,41.03,.02,61.55,.03,1.76,0,1.77,0,1.77,1.74,0,11.33-.02,22.66,0,34,.02,6.83,.11,13.66,.16,20.49,.01,1.97-.06,2.09-1.98,2.02-4.98-.18-9.96-.05-14.93-.06-5.28,0-10.57,.03-15.86,.03-4.18,0-8.37-.04-12.55-.03-5.55,0-11.1-.06-16.65,.06-2.87,.06-2.88,0-2.88,2.95,0,17.37,0,34.74,0,52.12,0,.4,0,.79,0,1.19-.01,.61-.21,.87-.77,.38-.16-.15-.32-.31-.47-.46-6.56-6.47-13.11-12.96-19.69-19.41-.81-.8-1.19-1.61-1.19-2.77,.03-29.98,.02-59.97,.02-89.95,0-.18-.02-.36,0-.53,.05-.32-.16-.78,.29-.91,.33-.09,.53,.25,.74,.47,1.45,1.48,2.89,2.96,4.33,4.45,5.17,5.31,10.33,10.62,15.5,15.93,.18,.18,.39,.34,.68,.58Zm.56,6.15c0,1.45,.01,2.91,0,4.36,0,.63,.15,1.03,.89,.97,3.04-.23,6.09,.08,9.11-.04,4.45-.18,8.89,.04,13.34-.06,5.98-.14,11.97-.05,17.96-.02,1.05,0,1.52-.28,1.49-1.42-.07-2.64-.06-5.29,0-7.94,.02-.97-.34-1.21-1.23-1.19-2.69,.05-5.38,.05-8.07,.05-10.76,0-21.53,0-32.29-.04-.95,0-1.25,.31-1.22,1.21,.05,1.37,.01,2.73,.01,4.1Z"/><path d="M.25,63.23c0-9.39,.02-18.77-.02-28.16,0-1.16,.25-1.59,1.52-1.59,12.13,.05,24.26,.04,36.38,.01,.87,0,1.48,.26,2.06,.9,3.72,4.07,7.45,8.12,11.22,12.14,.65,.7,.94,1.4,.94,2.35-.03,9.08-.04,18.16-.03,27.24,0,.73-.26,1.24-.74,1.75-4.47,4.75-8.93,9.52-13.37,14.29-.48,.52-1,.78-1.73,.78-11.73-.02-23.46-.03-35.19,.01C.04,92.96,0,92.33,0,91.39c.02-8.11,.02-16.22,.02-24.33,0-1.28,0-2.56,0-3.83h.23Zm25.89-8.82v-.03c3.92,0,7.84-.02,11.76,.01,.89,0,1.29-.25,1.25-1.2-.06-1.49-.05-2.99,0-4.49,.03-.89-.25-1.26-1.2-1.25-7.84,.02-15.68,0-23.53-.03-.83,0-1.07,.32-1.05,1.1,.04,1.54,.06,3.08,0,4.62-.04,.98,.27,1.3,1.27,1.29,3.83-.05,7.67-.02,11.5-.02Zm.05,20.9v-.03c3.88,0,7.75-.03,11.63,.02,1.08,.02,1.38-.38,1.33-1.39-.07-1.41-.08-2.82,0-4.22,.06-1.08-.37-1.38-1.39-1.34-1.49,.06-2.99,.02-4.49,.02-6.17,0-12.34,0-18.5-.05-1.11-.01-1.47,.33-1.4,1.42,.08,1.36,.09,2.73,0,4.09-.07,1.13,.25,1.54,1.46,1.51,3.79-.08,7.58-.03,11.37-.03Z"/><path d="M58.5,62.97c0-9.35,.03-18.7-.03-28.04,0-1.31,.31-1.71,1.68-1.71,11.91,.05,23.82,.02,35.74-.02,1.06,0,1.81,.3,2.53,1.08,3.65,3.95,7.36,7.85,11.03,11.78,.25,.27,.75,.51,.51,.96-.18,.33-.64,.19-.98,.19-11.21,0-22.41,0-33.62,0-.84,0-1.68,.06-2.51,0-.96-.06-1.22,.37-1.19,1.26,.05,1.41,.07,2.82,0,4.23-.06,1.08,.28,1.47,1.41,1.45,3.7-.05,7.41,0,11.12,0,8.34,0,16.68,.01,25.01-.06,1.36-.01,1.72,.39,1.69,1.71-.09,3.61-.08,7.23,0,10.85,.02,1.18-.37,1.49-1.51,1.48-12.04-.04-24.09,0-36.13-.05-1.19,0-1.68,.28-1.59,1.54,.1,1.4,.05,2.82-.02,4.23-.05,.93,.29,1.21,1.21,1.21,7.19-.03,14.38-.02,21.57-.03,4.94,0,9.88-.02,14.82,0,.53,0,1.26-.29,1.52,.4,.27,.72,.11,1.44-.48,2.06-1.51,1.6-2.97,3.26-4.47,4.88-2.95,3.21-5.92,6.41-8.87,9.63-.57,.62-1.15,.97-2.05,.97-11.47-.04-22.94-.04-34.41-.05q-1.96,0-1.96-1.92c0-9.35,0-18.7,0-28.04h-.02Z"/></g></g></svg>